<svg width="124" height="32" viewBox="0 0 124 32" fill="none" xmlns="http://www.w3.org/2000/svg">
<path d="M16 9V11" stroke="#333333" stroke-width="2" stroke-linecap="round" stroke-linejoin="round"/>
<path d="M16 21V23" stroke="#333333" stroke-width="2" stroke-linecap="round" stroke-linejoin="round"/>
<path d="M16 28C22.6274 28 28 22.6274 28 16C28 9.37258 22.6274 4 16 4C9.37258 4 4 9.37258 4 16C4 22.6274 9.37258 28 16 28Z" stroke="#333333" stroke-width="2" stroke-linecap="round" stroke-linejoin="round"/>
<path d="M13 21H17.5C18.163 21 18.7989 20.7366 19.2678 20.2678C19.7366 19.7989 20 19.163 20 18.5C20 17.837 19.7366 17.2011 19.2678 16.7322C18.7989 16.2634 18.163 16 17.5 16H14.5C13.837 16 13.2011 15.7366 12.7322 15.2678C12.2634 14.7989 12 14.163 12 13.5C12 12.837 12.2634 12.2011 12.7322 11.7322C13.2011 11.2634 13.837 11 14.5 11H19" stroke="#333333" stroke-width="2" stroke-linecap="round" stroke-linejoin="round"/>
<path d="M39.84 17.732C39.84 18.6173 39.4613 19.3373 38.704 19.892C37.9467 20.436 37.1093 20.708 36.192 20.708C35.2747 20.708 34.464 20.548 33.76 20.228L33.888 20.548C33.92 20.612 33.8933 20.6707 33.808 20.724C33.7333 20.788 33.648 20.82 33.552 20.82C33.456 20.82 33.392 20.7933 33.36 20.74C33.0187 19.876 32.8107 18.8733 32.736 17.732C32.736 17.6253 32.8213 17.572 32.992 17.572C33.1627 17.572 33.2533 17.6093 33.264 17.684C33.4987 18.4947 33.9733 19.1453 34.688 19.636C35.1253 19.9453 35.632 20.1 36.208 20.1C36.7947 20.1 37.264 19.9347 37.616 19.604C37.9787 19.2627 38.16 18.8573 38.16 18.388C38.16 17.908 38.0373 17.4813 37.792 17.108C37.5467 16.724 37.2427 16.4147 36.88 16.18C36.5173 15.9453 36.1227 15.7 35.696 15.444C35.2693 15.1773 34.8747 14.9267 34.512 14.692C34.1493 14.4467 33.8453 14.1213 33.6 13.716C33.3547 13.3107 33.232 12.852 33.232 12.34C33.232 11.5613 33.5787 10.9053 34.272 10.372C34.976 9.828 35.856 9.556 36.912 9.556C37.392 9.556 37.84 9.62 38.256 9.748L38.448 9.796C38.4053 9.62533 38.3787 9.508 38.368 9.444C38.368 9.38 38.3893 9.33733 38.432 9.316C38.4853 9.284 38.56 9.268 38.656 9.268C38.7627 9.268 38.832 9.31067 38.864 9.396C39.1093 10.26 39.2533 11.108 39.296 11.94C39.264 12.004 39.1733 12.036 39.024 12.036C38.8853 12.036 38.8 12.02 38.768 11.988C38.6507 11.5507 38.4853 11.1933 38.272 10.916C38.0587 10.628 37.824 10.4307 37.568 10.324C37.312 10.2173 37.0133 10.164 36.672 10.164C36.0107 10.164 35.536 10.3347 35.248 10.676C34.9707 11.0067 34.832 11.3747 34.832 11.78C34.832 12.1747 34.9227 12.516 35.104 12.804C35.296 13.0813 35.536 13.3267 35.824 13.54C36.1227 13.7427 36.448 13.9453 36.8 14.148C37.152 14.34 37.504 14.548 37.856 14.772C38.2187 14.996 38.5493 15.2413 38.848 15.508C39.5093 16.0947 39.84 16.836 39.84 17.732ZM43.0734 20.5L41.3614 20.532C41.2867 20.532 41.2494 20.452 41.2494 20.292C41.2494 20.132 41.276 20.052 41.3294 20.052H42.1134C42.2414 20.052 42.3054 19.9613 42.3054 19.78V14.532C42.3054 13.6893 42.188 13.268 41.9534 13.268H41.3934C41.276 13.268 41.2174 13.188 41.2174 13.028C41.2174 12.8573 41.2654 12.772 41.3614 12.772C42.3107 12.7933 43.2814 12.804 44.2734 12.804C45.2654 12.804 46.0334 13.0067 46.5774 13.412C47.1214 13.8173 47.3934 14.34 47.3934 14.98C47.3934 15.4707 47.1694 15.94 46.7214 16.388C46.2734 16.8253 45.6814 17.044 44.9454 17.044C44.4654 17.044 44.0387 16.98 43.6654 16.852V18.948C43.6654 19.652 43.772 20.004 43.9854 20.004H44.7854C44.8707 20.004 44.9134 20.0893 44.9134 20.26C44.9134 20.42 44.8867 20.5 44.8334 20.5H43.0734ZM43.9854 13.284C43.772 13.284 43.6654 13.46 43.6654 13.812V16.308C43.7827 16.3293 43.9587 16.34 44.1934 16.34C44.7054 16.34 45.1107 16.2013 45.4094 15.924C45.7187 15.636 45.8734 15.2893 45.8734 14.884C45.8734 14.4787 45.7187 14.1107 45.4094 13.78C45.1 13.4493 44.6254 13.284 43.9854 13.284ZM48.4403 12.772L49.7043 12.804C49.8216 12.804 49.9229 12.804 50.0082 12.804L51.6723 12.772C51.7469 12.772 51.7843 12.852 51.7843 13.012C51.7843 13.1613 51.7416 13.236 51.6562 13.236H50.9203C50.7816 13.236 50.7123 13.3213 50.7123 13.492V18.788C50.7123 19.588 50.8189 19.988 51.0323 19.988H51.4483C52.6216 19.9667 53.4323 19.8013 53.8803 19.492L53.9603 18.868C53.9816 18.804 54.0349 18.772 54.1203 18.772C54.2163 18.772 54.2803 18.772 54.3123 18.772C54.3763 18.7933 54.4083 18.8253 54.4083 18.868C54.3443 19.316 54.3123 19.9453 54.3123 20.756C54.3123 20.8093 54.2376 20.836 54.0883 20.836C53.9496 20.836 53.8803 20.8093 53.8803 20.756V20.5H51.1283L48.4083 20.532C48.3336 20.532 48.2963 20.452 48.2963 20.292C48.2963 20.132 48.3283 20.052 48.3923 20.052H49.1123C49.2296 20.052 49.2989 20.0307 49.3203 19.988C49.3416 19.9347 49.3523 19.8013 49.3523 19.588V14.548C49.3523 13.6947 49.2456 13.268 49.0323 13.268H48.4563C48.3283 13.268 48.2643 13.188 48.2643 13.028C48.2643 12.8573 48.3229 12.772 48.4403 12.772ZM55.4715 12.772L56.7355 12.804C56.8528 12.804 56.9542 12.804 57.0395 12.804L58.7035 12.772C58.7782 12.772 58.8155 12.852 58.8155 13.012C58.8155 13.1613 58.7728 13.236 58.6875 13.236H57.9515C57.8128 13.236 57.7435 13.3213 57.7435 13.492V18.788C57.7435 19.5987 57.8502 20.004 58.0635 20.004H58.8635C58.9488 20.004 58.9915 20.0893 58.9915 20.26C58.9915 20.42 58.9595 20.5 58.8955 20.5L57.0395 20.484L55.4395 20.532C55.3648 20.532 55.3275 20.452 55.3275 20.292C55.3275 20.132 55.3595 20.052 55.4235 20.052H56.1435C56.2608 20.052 56.3302 20.0307 56.3515 19.988C56.3728 19.9347 56.3835 19.8013 56.3835 19.588V14.548C56.3835 13.6947 56.2768 13.268 56.0635 13.268H55.4875C55.3595 13.268 55.2955 13.188 55.2955 13.028C55.2955 12.8573 55.3542 12.772 55.4715 12.772ZM67.5458 14.484C67.5458 14.548 67.4711 14.58 67.3218 14.58C67.1831 14.58 67.1138 14.5427 67.1138 14.468C67.0071 13.9453 66.8471 13.6573 66.6338 13.604C66.2498 13.5187 65.6684 13.4653 64.8898 13.444H64.5858C64.4791 13.4547 64.4258 13.54 64.4258 13.7V18.788C64.4258 19.5987 64.5324 20.004 64.7458 20.004H65.5458C65.6311 20.004 65.6738 20.0893 65.6738 20.26C65.6738 20.42 65.6418 20.5 65.5778 20.5L63.7218 20.484L62.1218 20.532C62.0471 20.532 62.0098 20.452 62.0098 20.292C62.0098 20.132 62.0418 20.052 62.1058 20.052H62.8258C62.9431 20.052 63.0124 20.0307 63.0338 19.988C63.0551 19.9347 63.0658 19.8013 63.0658 19.588V14.724C63.0658 13.924 62.9698 13.4973 62.7778 13.444C61.9138 13.444 61.2684 13.4973 60.8418 13.604C60.6284 13.6573 60.4684 13.9453 60.3618 14.468C60.3618 14.5427 60.2871 14.58 60.1378 14.58C59.9991 14.58 59.9298 14.548 59.9298 14.484L60.0098 12.564C60.0098 12.5 60.0791 12.468 60.2178 12.468C60.3671 12.468 60.4418 12.5 60.4418 12.564V12.772C60.4418 12.772 61.1404 12.7827 62.5378 12.804H63.7218C65.3431 12.804 66.4311 12.7933 66.9858 12.772H67.0338V12.564C67.0338 12.5 67.1031 12.468 67.2418 12.468C67.3911 12.468 67.4658 12.5 67.4658 12.564L67.5458 14.484ZM84.7993 20.484L82.7033 20.532C82.6179 20.532 82.5753 20.4413 82.5753 20.26C82.5753 20.0787 82.6179 19.988 82.7033 19.988H83.3113C83.5139 19.988 83.6579 19.9453 83.7433 19.86C83.8286 19.7747 83.8659 19.6413 83.8553 19.46C83.8446 19.268 83.7966 18.6013 83.7113 17.46C83.4553 14.2813 83.3273 12.4627 83.3273 12.004H83.2633C83.0819 12.4093 82.4899 13.764 81.4873 16.068C80.4846 18.3613 79.8606 19.764 79.6153 20.276C79.5619 20.3613 79.4659 20.404 79.3273 20.404C79.1886 20.404 79.0979 20.3613 79.0553 20.276C78.7886 19.86 78.2499 18.6493 77.4393 16.644C76.6286 14.628 76.0153 13.0333 75.5993 11.86H75.5353C75.2686 15.6147 75.1353 17.908 75.1353 18.74C75.1353 19.5613 75.2686 19.972 75.5353 19.972H76.2393C76.3779 19.972 76.4473 20.0627 76.4473 20.244C76.4473 20.4147 76.3779 20.5 76.2393 20.5L74.5593 20.484L72.5433 20.532C72.4473 20.532 72.3993 20.4413 72.3993 20.26C72.3993 20.0787 72.4473 19.988 72.5433 19.988H73.0713C73.3593 19.988 73.5566 19.9667 73.6633 19.924C73.7806 19.8707 73.8553 19.748 73.8873 19.556C73.9939 18.9373 74.1593 17.5773 74.3832 15.476C74.6179 13.2467 74.7353 11.9187 74.7353 11.492C74.7353 11.0547 74.7033 10.74 74.6393 10.548C74.5859 10.3453 74.4793 10.244 74.3193 10.244H73.5193C73.4339 10.244 73.3913 10.1587 73.3913 9.988C73.3913 9.81733 73.4339 9.732 73.5193 9.732L76.5433 9.764C76.6819 10.2333 77.1673 11.6147 77.9993 13.908C78.8419 16.1907 79.3966 17.716 79.6633 18.484H79.7273C80.0259 17.7373 80.4526 16.6867 81.0073 15.332C82.0846 12.6867 82.7939 10.8307 83.1353 9.764L85.8233 9.716C85.9193 9.716 85.9673 9.80667 85.9673 9.988C85.9673 10.1587 85.9193 10.244 85.8233 10.244H85.2153C85.0126 10.244 84.8793 10.3027 84.8153 10.42C84.7513 10.5267 84.7193 10.6493 84.7193 10.788C84.7193 10.916 84.7193 11.0493 84.7193 11.188C84.7299 11.3267 84.8313 12.4093 85.0233 14.436C85.2259 16.452 85.3913 17.988 85.5193 19.044C85.5833 19.6627 85.7059 19.972 85.8873 19.972H86.8953C87.0126 19.972 87.0713 20.0627 87.0713 20.244C87.0713 20.4147 87.0126 20.5 86.8953 20.5L84.7993 20.484ZM89.3255 13.796C90.1895 12.996 91.1922 12.596 92.3335 12.596C93.4748 12.596 94.4722 12.996 95.3255 13.796C96.1895 14.596 96.6215 15.5453 96.6215 16.644C96.6215 17.732 96.1895 18.6813 95.3255 19.492C94.4722 20.3027 93.4748 20.708 92.3335 20.708C91.1922 20.708 90.1895 20.3027 89.3255 19.492C88.4722 18.6813 88.0455 17.732 88.0455 16.644C88.0455 15.5453 88.4722 14.596 89.3255 13.796ZM94.2695 14.18C93.7682 13.508 93.1228 13.172 92.3335 13.172C91.5442 13.172 90.8988 13.508 90.3975 14.18C89.8962 14.8413 89.6455 15.6627 89.6455 16.644C89.6455 17.6147 89.8962 18.4413 90.3975 19.124C90.8988 19.796 91.5442 20.132 92.3335 20.132C93.1228 20.132 93.7682 19.796 94.2695 19.124C94.7708 18.4413 95.0215 17.6147 95.0215 16.644C95.0215 15.6627 94.7708 14.8413 94.2695 14.18ZM105.218 12.804L106.69 12.772C106.754 12.772 106.786 12.852 106.786 13.012C106.786 13.1613 106.754 13.236 106.69 13.236H106.13C105.981 13.236 105.885 13.2733 105.842 13.348C105.65 13.6787 105.554 16.0787 105.554 20.548C105.554 20.6547 105.464 20.708 105.282 20.708C105.112 20.708 104.989 20.6707 104.914 20.596C102.781 18.0573 101.064 15.9987 99.7624 14.42H99.7144C99.7464 16.308 99.7784 17.8867 99.8104 19.156C99.8104 19.7107 99.8904 19.988 100.05 19.988H100.69C100.754 19.988 100.786 20.0733 100.786 20.244C100.786 20.404 100.754 20.484 100.69 20.484H99.3624L97.9064 20.516C97.853 20.516 97.8264 20.4413 97.8264 20.292C97.8264 20.132 97.853 20.052 97.9064 20.052H98.2904C98.621 20.052 98.7917 19.9453 98.8024 19.732C98.9624 18.004 99.0424 15.9827 99.0424 13.668C98.8717 13.4653 98.7277 13.348 98.6104 13.316C98.493 13.284 98.2744 13.268 97.9544 13.268C97.8904 13.268 97.8584 13.188 97.8584 13.028C97.8584 12.8573 97.8904 12.772 97.9544 12.772L100.21 12.804C102.802 16.0893 104.328 18.036 104.786 18.644H104.818C104.776 15.8493 104.738 14.2547 104.706 13.86C104.674 13.4653 104.589 13.268 104.45 13.268H103.89C103.816 13.268 103.778 13.188 103.778 13.028C103.778 12.8573 103.816 12.772 103.89 12.772L105.218 12.804ZM108.065 12.772L109.697 12.804H113.009V12.548C113.009 12.484 113.079 12.452 113.217 12.452C113.367 12.452 113.441 12.484 113.441 12.548C113.441 13.3907 113.479 13.9933 113.553 14.356C113.575 14.42 113.516 14.452 113.377 14.452C113.196 14.452 113.105 14.42 113.105 14.356C112.956 13.8653 112.812 13.588 112.673 13.524C112.225 13.364 111.575 13.284 110.721 13.284C110.572 13.2947 110.471 13.3373 110.417 13.412C110.364 13.4867 110.337 13.62 110.337 13.812V16.436C111.628 16.3933 112.337 16.3347 112.465 16.26L112.577 15.588C112.599 15.5347 112.673 15.508 112.801 15.508C112.94 15.508 113.009 15.5453 113.009 15.62C112.967 15.9293 112.945 16.276 112.945 16.66C112.945 17.0333 112.967 17.3747 113.009 17.684C113.009 17.748 112.935 17.78 112.785 17.78C112.647 17.78 112.577 17.7587 112.577 17.716L112.449 17.028C112.321 16.9533 111.617 16.8947 110.337 16.852V18.788C110.337 19.588 110.444 19.988 110.657 19.988H111.169C112.343 19.9667 113.153 19.8013 113.601 19.492L113.681 18.868C113.703 18.804 113.756 18.772 113.841 18.772C113.937 18.772 114.001 18.772 114.033 18.772C114.097 18.7933 114.129 18.8253 114.129 18.868C114.065 19.316 114.033 19.9453 114.033 20.756C114.033 20.8093 113.959 20.836 113.809 20.836C113.671 20.836 113.601 20.8093 113.601 20.756V20.5H110.753L108.033 20.532C107.959 20.532 107.921 20.452 107.921 20.292C107.921 20.132 107.953 20.052 108.017 20.052H108.737C108.855 20.052 108.924 20.0307 108.945 19.988C108.967 19.9347 108.977 19.8013 108.977 19.588V14.548C108.977 13.6947 108.871 13.268 108.657 13.268H108.081C107.953 13.268 107.889 13.188 107.889 13.028C107.889 12.8573 107.948 12.772 108.065 12.772ZM119.038 20.484L117.438 20.532C117.363 20.532 117.326 20.452 117.326 20.292C117.326 20.132 117.358 20.052 117.422 20.052H118.142C118.259 20.052 118.329 20.0307 118.35 19.988C118.371 19.9347 118.382 19.8013 118.382 19.588V17.044H118.366C118.377 16.724 117.625 15.6947 116.11 13.956C115.694 13.4653 115.374 13.22 115.15 13.22H114.782C114.697 13.22 114.654 13.1507 114.654 13.012C114.654 12.8627 114.686 12.788 114.75 12.788L116.27 12.804L117.934 12.788C117.998 12.788 118.03 12.8573 118.03 12.996C118.03 13.1347 118.003 13.204 117.95 13.204H117.15C117.15 13.2253 117.283 13.396 117.55 13.716C118.435 14.772 119.011 15.572 119.278 16.116H119.326C119.486 15.8493 119.811 15.4067 120.302 14.788C120.793 14.1693 121.07 13.796 121.134 13.668C121.209 13.5293 121.246 13.4227 121.246 13.348C121.246 13.2627 121.203 13.22 121.118 13.22H120.67C120.617 13.22 120.59 13.1507 120.59 13.012C120.59 12.8627 120.627 12.788 120.702 12.788L122.19 12.804L123.454 12.788C123.529 12.788 123.566 12.8573 123.566 12.996C123.566 13.1347 123.523 13.204 123.438 13.204H123.15C122.958 13.204 122.793 13.2627 122.654 13.38C122.131 13.8173 121.534 14.4147 120.862 15.172C120.201 15.9187 119.827 16.4413 119.742 16.74V18.788C119.742 19.5987 119.849 20.004 120.062 20.004H120.862C120.947 20.004 120.99 20.0893 120.99 20.26C120.99 20.42 120.958 20.5 120.894 20.5L119.038 20.484Z" fill="#1E1E1E"/>
</svg>
